<svg width="105" height="110" viewBox="0 0 105 110" fill="none" xmlns="http://www.w3.org/2000/svg">
<path fill-rule="evenodd" clip-rule="evenodd" d="M74.5185 0.151477C65.295 1.39474 55.4658 8.78932 44.7466 22.5502C41.4825 26.7388 36.9036 33.6224 33.6298 39.2588C31.634 42.695 28.9548 47.6961 29.0549 47.7964C29.0981 47.8397 30.4057 47.3913 31.9605 46.801C44.2497 42.1295 57.0846 35.1617 68.4103 27.0131C69.3986 26.3016 70.2429 25.7554 70.2869 25.7995C70.4413 25.9543 65.4239 31.0557 63.0888 33.1187C54.331 40.855 40.4862 49.0661 27.7209 54.0945C26.6214 54.5276 25.8179 54.9135 25.9356 54.9536C26.054 54.9929 27.2503 54.8348 28.5947 54.6022C35.5096 53.4055 43.7944 50.9013 53.0923 47.1972C56.8214 45.7117 63.4353 42.8418 65.1422 41.9691C65.5823 41.7445 65.9848 41.6018 66.036 41.6539C66.2249 41.8424 60.8273 45.9508 57.1871 48.3883C45.1828 56.427 28.5747 64.1408 9.44916 70.5609C6.66115 71.4969 4.56374 72.2645 4.7862 72.267C5.28235 72.2734 10.7103 71.294 16.0367 70.2376C43.0494 64.878 62.6415 57.8909 73.5695 49.7206C75.8133 48.0426 79.0254 44.9337 80.2834 43.222C82.6521 39.9975 83.5428 37.6554 83.6876 34.2681C83.826 31.0493 83.5516 29.9921 81.7206 26.6963C80.8268 25.0881 80.6763 23.4943 81.2973 22.2085C83.0946 18.4876 90.5992 15.6144 102.087 14.2484C103.425 14.0888 104.634 13.9581 104.773 13.9573C105.46 13.9525 104.484 11.6601 103.249 10.3775C101.29 8.34255 98.6023 7.04956 93.5913 5.7301C91.317 5.13093 89.4005 4.28552 87.1918 2.9075C83.5468 0.632739 78.7253 -0.41561 74.5185 0.151477ZM73.6063 4.30477C68.3319 5.48225 63.2576 8.61126 57.5688 14.1931C54.3262 17.375 52.3953 19.5808 49.6841 23.1999C47.0561 26.7091 42.2819 33.8157 43.1326 32.9527C43.243 32.8412 44.1153 31.6982 45.0715 30.4132C52.2112 20.8169 61.2547 12.8095 69.9572 8.37945C73.2077 6.72551 74.853 6.21457 76.9536 6.20575C79.3663 6.19693 81.1941 7.05197 79.6728 7.47869C79.4023 7.55408 78.8158 7.62868 78.37 7.64392C77.5626 7.67119 77.561 7.6728 78.066 7.96155C79.2951 8.6658 82.3224 8.0939 82.3224 7.15785C82.3224 6.50333 81.1781 5.26328 80.0217 4.66411C79.1303 4.2029 78.6821 4.11547 76.9512 4.06734C75.7133 4.03205 74.4105 4.12509 73.6063 4.30477ZM72.2883 55.9401C69.4186 57.7288 65.1438 59.8632 61.7476 61.2043C57.0326 63.0652 46.528 66.3795 39.3459 68.2717C29.8847 70.7638 27.6865 71.3758 25.6123 72.0921C13.2415 76.3617 4.62215 83.3384 1.27078 91.7958C-1.00589 97.5404 -0.175245 103.458 3.37539 106.786C4.85022 108.17 5.93694 108.791 8.00314 109.429C10.0061 110.048 11.7922 110.161 13.576 109.781C16.6673 109.124 18.4062 107.365 19.7226 103.563C19.9362 102.947 20.5676 100.659 21.127 98.4797C22.3769 93.6053 23.3108 90.8027 24.4743 88.4333C26.9567 83.3769 30.7642 79.5212 35.8825 76.879C38.4744 75.5403 40.3742 74.8345 45.0075 73.487C49.272 72.2469 53.5516 70.625 57.0854 68.9109L59.7206 67.6324L58.7067 68.5428C57.9713 69.2045 54.2318 71.8539 53.5964 72.1643C53.5732 72.1755 53.7709 73.6442 54.0358 75.4272L54.5167 78.6693L55.4178 79.4819C56.294 80.2727 58.7467 81.8457 62.2542 83.8654L63.9779 84.8576L60.0527 84.8616L56.1284 84.8664L54.1742 83.5181C51.5182 81.6852 50.1418 80.4853 49.4344 79.3888C48.871 78.5145 48.8454 78.3782 48.9367 76.79C48.9903 75.8676 48.9863 75.1136 48.9295 75.1136C48.8502 75.1136 44.2449 76.5462 44.0777 76.6232C44.0584 76.632 44.1809 77.4614 44.3497 78.4664C44.5906 79.9014 44.7723 80.4211 45.1956 80.8823C45.7285 81.4631 48.9551 83.6672 50.2627 84.3426C50.6356 84.5351 50.8876 84.7461 50.8236 84.8102C50.7588 84.8744 48.0828 85.0019 44.8755 85.0934C36.7179 85.3244 27.3504 85.9155 27.6209 86.1818C27.8921 86.4481 36.1081 87.3922 41.7874 87.8101C46.1927 88.1342 60.9378 88.6098 61.217 88.4365C61.3075 88.3804 63.3801 88.317 65.8216 88.2954C72.7876 88.2336 81.3661 87.7451 90.4312 86.8933C92.7166 86.6783 95.271 86.4409 96.1072 86.3655C97.8573 86.2083 98.8776 85.9163 97.7517 85.8947C97.374 85.8883 94.045 85.7431 90.3527 85.5722C86.6613 85.4022 80.353 85.1944 76.3359 85.111L69.0313 84.9594L66.9099 83.6624C62.9784 81.2593 60.232 79.1081 59.3805 77.7662C58.8964 77.0018 58.8083 76.6488 58.8083 75.4738C58.8083 71.6935 61.8812 67.1479 67.6565 62.3858C70.046 60.4143 73.0493 57.3021 74.1176 55.6883C74.5273 55.0707 74.8306 54.5333 74.7922 54.4948C74.753 54.4563 73.6263 55.1068 72.2883 55.9409" fill="black"/>
</svg>
