<svg width="100" height="62" viewBox="0 0 100 62" fill="none" xmlns="http://www.w3.org/2000/svg">
<path d="M21.7646 0C22.2287 3.27505e-05 22.6055 0.396598 22.6055 0.885742V7.97168C22.6052 8.46057 22.2285 8.85739 21.7646 8.85742H10.084C9.6199 8.85745 9.24414 9.25402 9.24414 9.74316V24.3574C9.24448 24.8463 9.62011 25.2431 10.084 25.2432H20.084C20.5481 25.2432 20.9248 25.6398 20.9248 26.1289V33.2139C20.9247 33.7029 20.548 34.0996 20.084 34.0996H10.084C9.61997 34.0996 9.24425 34.4963 9.24414 34.9854V52.2568C9.24428 52.7459 9.61999 53.1425 10.084 53.1426H29.3281V0.885742C29.3282 0.396668 29.704 8.07448e-05 30.168 0H37.7314C38.1954 0.000207162 38.5712 0.396747 38.5713 0.885742V22.1963C38.5715 23.1405 39.7866 23.4291 40.1709 22.5762L50.1084 0.505859C50.2475 0.197076 50.5429 0.000146593 50.8672 0H58.208C58.8355 4.26793e-05 59.242 0.698819 58.957 1.28809L48.7246 22.4463C48.6264 22.6494 48.6058 22.8852 48.668 23.1035L56.4346 50.3691C58.4004 48.0981 61.3445 46.2183 65.0557 44.9062C65.9686 44.5833 66.9365 44.3072 71.1006 43.1836C74.2618 42.3304 78.8854 40.8362 80.9609 39.9971C82.4559 39.3924 84.3384 38.4306 85.6016 37.624C86.1883 37.2493 86.6826 36.9565 86.7031 36.9717C86.72 36.989 86.5865 37.2314 86.4062 37.5098C85.936 38.2375 84.6143 39.6413 83.5625 40.5303C81.0204 42.6775 79.668 44.7271 79.668 46.4316C79.668 46.9612 79.7061 47.1205 79.9189 47.4648C80.2937 48.0699 81.5029 49.0405 83.2334 50.124L84.167 50.709L87.3828 50.7773C89.1511 50.815 91.9279 50.9087 93.5527 50.9854C95.1779 51.0624 96.6433 51.127 96.8096 51.1299C97.305 51.1397 96.8561 51.2719 96.0859 51.3428C95.7178 51.3768 94.5929 51.4841 93.5869 51.5811C89.5969 51.9651 85.821 52.185 82.7549 52.2129C81.6802 52.2227 80.7673 52.251 80.7275 52.2764C80.6001 52.3542 74.1147 52.1402 72.1758 51.9941C69.6759 51.8057 66.0589 51.3798 65.9395 51.2598C65.8227 51.1396 69.9445 50.8737 73.5342 50.7695C74.946 50.7283 76.1248 50.6705 76.1533 50.6416C76.1811 50.6126 76.07 50.5173 75.9062 50.4307C75.3307 50.1261 73.9105 49.132 73.6758 48.8701C73.4895 48.6622 73.4087 48.4281 73.3027 47.7812C73.229 47.3318 73.1762 46.9602 73.1836 46.9502C73.2572 46.9155 75.2845 46.2695 75.3193 46.2695C75.3441 46.2719 75.3458 46.6109 75.3223 47.0254C75.2821 47.7411 75.2931 47.8031 75.541 48.1973C75.8524 48.6916 76.459 49.2323 77.6279 50.0586L78.4883 50.667L80.2148 50.6641L81.9434 50.6631L81.1846 50.2148C79.6408 49.3042 78.5606 48.5959 78.1748 48.2393L77.7783 47.8721L77.5664 46.4102C77.4509 45.6133 77.3646 44.9557 77.373 44.9395C77.6527 44.7995 79.2992 43.6051 79.623 43.3066L80.0693 42.8955L78.9092 43.4727C77.3537 44.2455 75.4698 44.976 73.5928 45.5352C71.5533 46.1428 70.7171 46.4618 69.5762 47.0654C67.3233 48.2568 65.6473 49.9954 64.5547 52.2754C64.0426 53.3437 63.6312 54.6071 63.0811 56.8047C62.8348 57.7874 62.5569 58.8195 62.4629 59.0977C61.8835 60.8113 61.1182 61.6047 59.7578 61.9014C59.4084 61.9775 59.0584 62.0064 58.7002 61.9941C58.6732 61.9969 58.646 62 58.6182 62H50.7109C50.3394 62 50.0115 61.7424 49.9053 61.3672L42.8799 36.5254C42.6616 35.7546 41.6598 35.6649 41.3213 36.3857L38.6582 42.0625C38.6011 42.1844 38.5714 42.3191 38.5713 42.4551V61.1143C38.5711 61.6031 38.1953 61.9998 37.7314 62H0.84082C0.376879 62 0.000264688 61.6032 0 61.1143V0.885742C0 0.396578 0.376715 0 0.84082 0H21.7646ZM86.583 12.4678C88.4347 12.2122 90.5567 12.6853 92.1611 13.7109C93.1333 14.3323 93.9774 14.7132 94.9785 14.9834C97.1841 15.5783 98.3669 16.1616 99.2295 17.0791C99.7728 17.6572 100.202 18.6905 99.9004 18.6934C99.8391 18.6937 99.3066 18.7523 98.7178 18.8242C93.6613 19.4401 90.3575 20.7363 89.5664 22.4141C89.2932 22.9938 89.3595 23.7125 89.7529 24.4375C90.5588 25.9236 90.6801 26.4002 90.6191 27.8516C90.5554 29.3789 90.1627 30.4348 89.1201 31.8887C88.5664 32.6605 87.1527 34.0627 86.165 34.8193C81.3548 38.5033 72.7309 41.6536 60.8408 44.0703C58.4976 44.5464 56.1094 44.9877 55.8887 44.9854C55.7908 44.9843 56.7133 44.6379 57.9404 44.2158C66.3591 41.321 73.6701 37.8434 78.9541 34.2188C80.5565 33.1196 82.9318 31.2666 82.8486 31.1816C82.8248 31.159 82.6488 31.2235 82.4561 31.3242C81.7047 31.7177 78.7928 33.0118 77.1514 33.6816C73.0587 35.3518 69.4119 36.4809 66.3682 37.0205C65.7764 37.1254 65.2494 37.1964 65.1973 37.1787C65.148 37.1598 65.5009 36.9857 65.9834 36.791C71.6024 34.5237 77.6968 30.8214 81.5518 27.333C82.5797 26.4027 84.7877 24.103 84.7197 24.0332C84.6988 24.0146 84.3284 24.2601 83.8945 24.5801C78.9092 28.2543 73.259 31.3965 67.8496 33.5029C67.1653 33.7691 66.5893 33.9707 66.5703 33.9512C66.5338 33.8928 67.7091 31.6463 68.585 30.1016C70.0258 27.5604 72.0408 24.457 73.4775 22.5684C78.1958 16.3635 82.523 13.0284 86.583 12.4678ZM87.6533 14.2334C87.1087 14.2175 86.5356 14.2599 86.1816 14.3408C83.86 14.8718 81.6262 16.2829 79.1221 18.7998C77.6948 20.2345 76.8448 21.2295 75.6514 22.8613C74.4947 24.4436 72.3937 27.6471 72.7676 27.2588C72.8162 27.2085 73.2002 26.6927 73.6211 26.1133C76.7638 21.7863 80.7446 18.1752 84.5752 16.1777C86.0056 15.4322 86.7299 15.2023 87.6543 15.1982C88.7163 15.1943 89.5212 15.5801 88.8516 15.7725C88.7325 15.8064 88.4744 15.8398 88.2783 15.8467C87.9229 15.859 87.9223 15.86 88.1445 15.9902C88.6858 16.3074 90.0176 16.0489 90.0176 15.627C90.0171 15.3317 89.5136 14.773 89.0049 14.5029C88.6126 14.2951 88.4151 14.2551 87.6533 14.2334Z" fill="url(#paint0_linear_52_272)"/>
<defs>
<linearGradient id="paint0_linear_52_272" x1="50.8404" y1="-4.35901e-08" x2="55.5048" y2="54.875" gradientUnits="userSpaceOnUse">
<stop stop-color="white" stop-opacity="0.78"/>
<stop offset="0.79969" stop-color="#01C38E" stop-opacity="0.76"/>
<stop offset="1" stop-color="#055842"/>
</linearGradient>
</defs>
</svg>
